<svg width="112" height="89" viewBox="0 0 112 89" fill="none" xmlns="http://www.w3.org/2000/svg">
<path d="M35.9005 29.6227L36.5917 30.2837L37.2828 29.6227C45.3154 21.9408 54.6756 21.8209 61.6268 25.9942C68.6173 30.191 73.2434 38.7729 71.6012 48.6835C68.5869 66.8752 53.2619 79.1324 36.5917 87.8358C19.9215 79.1324 4.59645 66.8752 1.58211 48.6835C-0.0600557 38.7729 4.56608 30.191 11.5565 25.9942C18.5077 21.8209 27.868 21.9408 35.9005 29.6227Z" stroke="#DA43FF" stroke-width="2"/>
<path d="M91.5393 4.13439L92.2168 4.75854L92.8943 4.13439C97.0037 0.348872 101.754 0.30615 105.273 2.34116C108.823 4.39387 111.164 8.58263 110.331 13.4245C108.787 22.4003 100.964 28.5459 92.2168 32.9785C83.4696 28.5459 75.6464 22.4003 74.1024 13.4245C73.2695 8.58263 75.6108 4.39387 79.1604 2.34116C82.6793 0.30615 87.4299 0.348872 91.5393 4.13439Z" stroke="#DA43FF" stroke-width="2"/>
</svg>
