<svg width="82" height="83" viewBox="0 0 82 83" fill="none" xmlns="http://www.w3.org/2000/svg">
<path d="M40.2997 3.43018C37.2406 -0.675466 30.7756 0.69014 29.6382 5.6822L25.4856 23.9094C25.1766 25.2658 24.185 26.3642 22.8672 26.81L5.1587 32.8002C0.308701 34.4408 -0.390345 41.0115 4.00594 43.6358L20.0578 53.2177C21.2523 53.9307 21.9906 55.2132 22.0073 56.6042L22.2321 75.2971C22.2937 80.4167 28.3267 83.112 32.1811 79.7418L46.2544 67.4365C47.3016 66.5209 48.7494 66.215 50.0775 66.629L67.925 72.1916C72.8131 73.7151 77.2407 68.8102 75.2266 64.103L67.8725 46.916C67.3252 45.6371 67.4818 44.1656 68.2858 43.0304L79.0914 27.7754C82.0508 23.5973 78.7542 17.8707 73.655 18.3317L55.0367 20.0148C53.6512 20.14 52.3001 19.5365 51.469 18.4209L40.2997 3.43018Z" stroke="#FD6681" stroke-width="2"/>
</svg>
