<svg width="121" height="108" viewBox="0 0 121 108" fill="none" xmlns="http://www.w3.org/2000/svg">
<path d="M107.366 48.5487L107.372 48.5515L118.724 54.1041L107.372 59.6566L107.366 59.6594C90.0458 68.268 75.6629 81.0853 66.1365 96.6573L66.132 96.6649L60.5 106.056L54.868 96.6649L54.8665 96.6624C45.3416 80.8824 31.1672 68.0607 13.6293 59.4492L13.6279 59.4485L2.27592 53.896L13.6279 48.3434L13.6336 48.3406C30.9541 39.732 45.337 26.9147 54.8634 11.3426L54.8634 11.3427L54.868 11.3351L60.5 1.94428L66.132 11.3351L66.1319 11.3352L66.1385 11.3459C75.8701 27.1178 90.0394 39.937 107.366 48.5487Z" stroke="#FD03C6" stroke-width="2"/>
</svg>
