<svg width="29" height="26" viewBox="0 0 29 26" fill="none" xmlns="http://www.w3.org/2000/svg">
<path d="M25.3924 12.3668L25.3924 12.3668L25.3981 12.3696L26.7322 13.0251L25.3981 13.6805L25.3981 13.6805L25.3924 13.6833C21.1235 15.8146 17.5645 18.9946 15.2013 22.8748L15.2012 22.8748L15.1967 22.8824L14.5 24.0493L13.8032 22.8823L13.8018 22.8799C11.4401 18.9497 7.93042 15.7654 3.60323 13.6311L3.60185 13.6304L2.26775 12.975L3.60186 12.3195L3.60186 12.3195L3.60755 12.3167C7.87652 10.1854 11.4355 7.00544 13.7987 3.12517L13.7987 3.12519L13.8032 3.11765L14.5 1.95068L15.1967 3.11764L15.1967 3.11768L15.2033 3.12841C17.6125 7.05049 21.1171 10.2324 25.3924 12.3668Z" stroke="#F6BBEC" stroke-width="2"/>
</svg>
